# xmcd
#
# Track frame offsets:
#	150
#	22990
#	34317
#	45227
#	61842
#	73510
#	83130
#	96872
#	106572
#	120712
#	136497
#	147985
#
# Disc length: 2150 seconds
#
# Revision: 0
# Processed by: cddbd v1.4PL0 Copyright (c) Steve Scherf et al.
# Submitted via: MusicWizard 6.0.0
#
DISCID=9808640c
DTITLE=Johnny Cash - Personal Christmas Collection
DYEAR=1994
DGENRE=Country
TTITLE0=The Christmas Spirit
TTITLE1=I Heard The Bells On Christmas Day
TTITLE2=Blue Christmas
TTITLE3=Christmas As I Knew It
TTITLE4=The Little Drummer Boy
TTITLE5=Christmas With You
TTITLE6=Silent Night
TTITLE7=Joy To THe World
TTITLE8=Away In A Manger
TTITLE9=O Little Town Of Bethlehem
TTITLE10=Hark! The Herald Angels Sing
TTITLE11=O COme All Ye Faithful
EXTD=(c)1994 Sony Music Entertainment Inc/LEGACY\nupc 074646415429
EXTT0=
EXTT1=
EXTT2=
EXTT3=
EXTT4=
EXTT5=
EXTT6=
EXTT7=
EXTT8=
EXTT9=
EXTT10=
EXTT11=
PLAYORDER=
